<?xml version="1.0" standalone="no"?>
<!DOCTYPE svg PUBLIC "-//W3C//DTD SVG 20010904//EN"
 "http://www.w3.org/TR/2001/REC-SVG-20010904/DTD/svg10.dtd">
<svg version="1.0" xmlns="http://www.w3.org/2000/svg"
 width="980.000000pt" height="980.000000pt" viewBox="0 0 980.000000 980.000000"
 preserveAspectRatio="xMidYMid meet">
<metadata>
Created by potrace 1.16, written by Peter Selinger 2001-2019
</metadata>
<g transform="translate(0.000000,980.000000) scale(0.100000,-0.100000)"
fill="#000000" stroke="none">
<path d="M3262 9279 c-227 -38 -408 -201 -480 -433 -15 -46 -17 -204 -19
-1481 l-3 -1430 -659 -660 c-722 -724 -695 -692 -696 -815 0 -113 9 -126 337
-456 206 -207 314 -309 346 -325 38 -20 62 -24 127 -24 91 1 138 19 209 85
l42 39 87 -87 c48 -48 87 -92 87 -98 0 -7 -16 -37 -35 -69 -110 -184 -104
-425 16 -602 18 -26 142 -159 276 -294 200 -202 241 -248 230 -258 -8 -6 -27
-39 -43 -74 -26 -56 -29 -72 -29 -167 0 -99 2 -110 32 -171 60 -122 180 -206
308 -217 l63 -5 11 -74 c28 -185 168 -323 346 -340 l62 -6 7 -61 c19 -191 196
-354 384 -356 30 0 32 -2 32 -38 0 -91 55 -208 130 -276 134 -121 327 -135
484 -35 l48 30 56 -22 c73 -29 213 -31 282 -5 148 55 250 188 267 345 l6 58
56 6 c198 21 347 169 368 366 l6 58 56 6 c198 21 344 166 366 364 l7 60 57 6
c201 21 346 167 367 369 10 104 -30 224 -101 300 -14 15 -25 30 -25 35 0 4
103 111 229 238 207 207 233 238 265 304 47 98 59 163 54 285 -5 111 -24 172
-82 268 l-33 56 93 93 93 93 44 -42 c71 -65 120 -86 202 -86 120 0 128 6 466
346 336 338 343 347 343 463 0 56 -5 80 -26 120 -20 37 -195 218 -677 700
l-651 650 0 1366 c0 1334 0 1368 -20 1445 -31 121 -73 197 -154 279 -77 77
-143 120 -246 157 l-65 23 -1625 1 c-905 1 -1648 -2 -1678 -7z m3283 -204
c124 -32 229 -124 276 -242 l24 -58 3 -1352 2 -1352 -41 -11 c-23 -6 -58 -22
-78 -35 -20 -13 -169 -157 -333 -321 -279 -282 -297 -302 -312 -353 -32 -110
-12 -201 64 -284 l49 -53 -91 -92 c-50 -51 -93 -92 -95 -92 -3 0 -30 15 -61
34 -169 103 -367 110 -552 20 -67 -33 -99 -61 -308 -267 l-232 -231 -193 192
c-170 168 -202 195 -266 226 -98 47 -165 59 -286 54 -113 -6 -183 -28 -267
-84 l-52 -35 -92 92 -93 92 41 46 c67 77 83 115 83 206 0 122 -11 137 -348
472 -290 288 -345 333 -405 333 l-22 0 2 1398 3 1397 24 58 c46 116 151 209
271 241 85 23 3198 23 3285 1z m1003 -3837 c348 -348 640 -646 648 -662 9 -15
13 -38 10 -50 -3 -11 -136 -151 -295 -310 -284 -284 -290 -289 -323 -282 -27
5 -150 123 -675 649 -602 601 -643 645 -643 677 0 31 22 56 278 313 152 153
286 283 297 287 57 24 43 36 703 -622z m-4295 253 c247 -246 287 -291 287
-316 0 -26 -83 -113 -648 -677 -606 -607 -649 -648 -682 -648 -31 0 -56 21
-308 273 -265 263 -302 306 -302 344 0 19 1272 1299 1305 1313 11 5 29 6 40 3
11 -2 149 -134 308 -292z m3947 -1486 c0 -6 -41 -51 -90 -100 l-90 -90 -432
433 -433 432 95 95 95 95 427 -427 c236 -236 428 -433 428 -438z m-3635 685
l90 -90 -433 -433 -432 -432 -92 93 -93 92 430 430 c236 237 432 430 435 430
3 0 46 -41 95 -90z m2249 21 c53 -26 139 -108 642 -613 555 -557 583 -586 604
-643 26 -70 30 -178 10 -240 -24 -75 -78 -140 -281 -342 l-204 -203 -590 590
c-325 324 -604 596 -622 605 -20 10 -43 13 -60 9 -19 -4 -121 -99 -308 -284
-154 -153 -300 -289 -325 -303 -106 -61 -244 -71 -363 -27 -73 28 -157 93
-157 123 0 16 177 199 638 658 660 660 674 672 779 699 67 17 170 4 237 -29z
m-1504 -84 c40 -20 104 -77 232 -205 l178 -177 -359 -360 c-197 -198 -367
-376 -377 -395 -27 -51 -25 -162 3 -216 51 -97 207 -197 357 -229 145 -32 325
-1 451 77 28 18 159 140 293 272 l242 241 646 -645 c355 -355 652 -657 659
-671 89 -166 -91 -357 -262 -279 -31 14 -191 167 -575 550 -293 293 -544 540
-557 551 -61 49 -151 0 -151 -82 l0 -43 559 -561 c592 -593 581 -580 581 -670
-1 -100 -106 -195 -215 -195 -71 1 -103 29 -653 578 -298 298 -550 546 -561
551 -65 35 -141 -14 -141 -90 l0 -43 559 -561 c592 -593 581 -580 581 -670 -1
-108 -114 -204 -223 -191 -28 3 -54 9 -58 13 -4 5 0 37 9 72 47 191 -84 405
-280 457 -29 7 -69 14 -89 14 l-36 0 -6 59 c-4 32 -16 83 -27 113 -24 64 -102
155 -164 192 -49 28 -143 56 -192 56 l-31 0 -6 68 c-17 174 -156 315 -341 344
l-74 11 -5 64 c-10 128 -100 253 -225 311 -50 24 -69 27 -162 27 -160 0 -181
-12 -416 -246 l-190 -189 -250 249 c-264 265 -283 290 -304 401 -6 34 -7 74
-1 110 20 121 22 124 619 723 307 307 570 568 586 579 16 12 54 32 85 45 47
20 70 23 146 21 75 -3 99 -8 145 -31z m-332 -1876 c20 -10 44 -27 53 -37 52
-59 64 -155 30 -222 -24 -46 -494 -514 -538 -536 -62 -31 -161 -16 -217 33
-55 48 -73 159 -37 229 23 44 492 513 536 536 42 21 127 20 173 -3z m372 -402
c121 -28 184 -160 131 -274 -29 -61 -504 -529 -555 -545 -90 -29 -196 12 -238
93 -26 50 -28 128 -5 172 15 31 484 506 525 533 18 12 60 26 92 31 3 0 25 -4
50 -10z m480 -443 c48 -31 78 -81 86 -138 12 -88 2 -103 -270 -377 -162 -163
-265 -260 -291 -272 -53 -24 -109 -24 -162 2 -53 26 -88 69 -104 131 -11 40
-10 55 4 100 15 49 37 74 274 310 190 189 267 259 293 267 52 15 127 5 170
-23z m401 -409 c82 -44 120 -132 98 -225 -11 -43 -33 -69 -258 -296 -292 -295
-329 -319 -432 -285 -115 39 -169 159 -120 264 25 54 515 542 556 554 54 17
110 12 156 -12z m139 -565 c-1 -80 -70 -170 -147 -191 -44 -13 -103 -14 -103
-4 0 14 233 242 242 237 4 -3 8 -22 8 -42z"/>
<path d="M4680 8695 c-237 -53 -423 -196 -531 -409 -77 -150 -82 -185 -87
-583 -3 -326 -5 -353 -21 -353 -33 0 -121 -52 -156 -92 -72 -85 -70 -54 -70
-903 0 -752 0 -761 21 -806 28 -60 76 -114 133 -147 l46 -27 869 -3 c979 -3
925 -7 1014 73 30 27 59 66 73 97 l24 53 0 760 c0 712 -1 763 -18 813 -25 71
-96 143 -167 169 l-55 21 -6 348 c-5 315 -8 357 -27 427 -26 94 -85 211 -147
289 -90 114 -253 222 -400 263 -84 24 -404 30 -495 10z m425 -200 c196 -51
344 -186 414 -378 26 -72 26 -74 29 -414 l3 -343 -646 0 -647 0 4 343 c3 339
4 343 29 414 69 189 217 325 409 377 77 21 326 21 405 1z m657 -1364 l33 -29
3 -724 c2 -530 -1 -730 -9 -751 -25 -60 23 -57 -887 -57 l-833 0 -24 24 c-14
14 -26 41 -30 67 -3 24 -5 358 -3 742 l3 699 33 29 32 29 825 0 825 0 32 -29z"/>
<path d="M4840 6863 l-30 -28 -2 -144 -3 -145 -58 -29 c-73 -38 -149 -120
-176 -192 -28 -74 -28 -186 -2 -255 54 -143 185 -234 336 -233 202 2 357 157
357 357 0 136 -79 264 -198 322 -32 16 -54 33 -54 43 0 9 -2 74 -4 145 l-3
130 -32 28 c-42 38 -90 38 -131 1z m150 -536 c91 -60 97 -190 14 -256 -104
-82 -256 -8 -256 124 0 90 66 155 157 155 37 0 61 -6 85 -23z"/>
</g>
</svg>
