<?xml version="1.0" standalone="no"?>
<!DOCTYPE svg PUBLIC "-//W3C//DTD SVG 20010904//EN"
 "http://www.w3.org/TR/2001/REC-SVG-20010904/DTD/svg10.dtd">
<svg version="1.0" xmlns="http://www.w3.org/2000/svg"
 width="900.000000pt" height="900.000000pt" viewBox="0 0 900.000000 900.000000"
 preserveAspectRatio="xMidYMid meet">
<metadata>
Created by potrace 1.16, written by Peter Selinger 2001-2019
</metadata>
<g transform="translate(0.000000,900.000000) scale(0.100000,-0.100000)"
fill="#000000" stroke="none">
<path d="M4061 8430 c-332 -42 -626 -191 -858 -434 -190 -199 -305 -419 -364
-696 -31 -147 -31 -390 0 -537 56 -268 179 -497 374 -700 55 -57 98 -105 96
-107 -2 -2 -38 -23 -79 -47 -392 -221 -664 -532 -830 -948 -62 -158 -113 -361
-129 -525 l-9 -89 -247 -247 -247 -247 -73 28 c-345 134 -742 15 -968 -290
-124 -168 -184 -395 -158 -597 67 -511 556 -842 1054 -715 158 41 332 154 437
284 62 76 144 240 165 327 38 162 26 352 -31 495 -15 36 -24 69 -20 73 3 4
113 114 244 244 l237 238 643 0 642 0 0 -588 0 -589 -66 -28 c-204 -87 -366
-258 -443 -471 -40 -110 -55 -212 -48 -341 10 -215 82 -384 226 -537 227 -239
588 -321 905 -205 480 175 689 744 440 1198 -80 147 -202 264 -349 335 -38 18
-78 36 -87 39 -17 6 -18 43 -18 597 l0 590 643 0 642 0 242 -242 242 -243 -36
-105 c-99 -287 -26 -612 186 -833 323 -338 848 -355 1182 -39 180 169 269 372
269 611 0 134 -16 218 -60 325 -105 251 -330 442 -595 502 -122 28 -285 24
-398 -10 -49 -15 -101 -33 -116 -41 l-27 -14 -247 247 -246 247 -21 142 c-46
321 -148 591 -319 844 -168 250 -380 442 -646 585 -38 20 -71 38 -72 39 -2 1
41 46 95 101 190 194 326 442 376 689 128 628 -177 1255 -750 1543 -107 54
-235 98 -355 122 -117 24 -320 33 -428 20z m359 -581 c271 -63 505 -274 594
-537 53 -156 60 -360 16 -512 -80 -280 -300 -500 -581 -580 -96 -28 -275 -37
-372 -20 -342 61 -598 302 -678 637 -29 119 -23 331 11 438 48 151 122 267
240 378 200 188 488 262 770 196z m123 -2263 c179 -43 306 -99 463 -204 271
-183 388 -365 469 -732 14 -63 28 -123 31 -132 5 -17 -61 -18 -1286 -18
l-1292 0 7 33 c24 115 78 315 104 383 50 128 98 201 206 309 185 186 424 315
686 370 176 38 434 34 612 -9z m-3007 -2244 c48 -25 110 -91 132 -141 9 -21
16 -65 16 -106 1 -164 -114 -278 -279 -278 -84 0 -127 16 -188 72 -168 155
-87 441 136 480 56 9 135 -2 183 -27z m5637 -5 c96 -56 143 -150 135 -266 -6
-76 -31 -131 -80 -177 -137 -130 -353 -98 -443 66 -26 48 -30 65 -30 135 1 69
5 87 30 133 56 102 134 144 261 139 66 -3 89 -8 127 -30z m-2857 -1104 c66
-22 145 -101 167 -167 35 -103 14 -204 -59 -285 -61 -68 -125 -94 -218 -89
-82 4 -126 23 -181 76 -119 115 -114 301 12 411 77 69 179 88 279 54z"/>
</g>
</svg>
