<?xml version="1.0" standalone="no"?>
<!DOCTYPE svg PUBLIC "-//W3C//DTD SVG 20010904//EN"
 "http://www.w3.org/TR/2001/REC-SVG-20010904/DTD/svg10.dtd">
<svg version="1.0" xmlns="http://www.w3.org/2000/svg"
 width="512.000000pt" height="512.000000pt" viewBox="0 0 512.000000 512.000000"
 preserveAspectRatio="xMidYMid meet">
<metadata>
Created by potrace 1.16, written by Peter Selinger 2001-2019
</metadata>
<g transform="translate(0.000000,512.000000) scale(0.100000,-0.100000)"
fill="#000000" stroke="none">
<path d="M1853 5101 c-54 -33 -67 -71 -71 -204 -5 -158 -13 -162 -113 -60 -41
41 -88 81 -106 89 -42 18 -97 18 -137 -1 -42 -20 -482 -462 -495 -498 -14 -37
-14 -102 0 -130 6 -12 45 -56 86 -99 66 -66 75 -80 69 -102 l-6 -26 -123 0
c-103 0 -127 -3 -154 -20 -64 -38 -68 -57 -71 -337 l-3 -253 -80 0 c-132 0
-160 -25 -213 -189 -244 -760 46 -1602 703 -2043 108 -72 261 -153 356 -189
l55 -20 0 -452 c0 -504 -1 -498 69 -544 l34 -23 907 0 907 0 34 23 c69 46 69
46 69 495 l0 402 244 0 c236 0 244 1 277 23 68 45 69 53 69 430 l0 337 254 0
c246 0 254 1 287 23 48 32 71 81 66 140 -4 43 -33 91 -307 501 l-302 454 -9
84 c-13 123 -36 230 -74 354 -54 174 -78 194 -235 194 l-100 0 0 250 c0 270
-2 280 -55 330 -25 24 -34 25 -156 28 -123 3 -131 5 -138 25 -7 19 4 35 75
108 89 93 103 124 89 197 -6 32 -41 72 -243 275 -130 131 -249 245 -264 253
-35 18 -101 18 -136 0 -15 -8 -60 -48 -101 -89 -67 -69 -76 -74 -97 -65 -23
11 -24 15 -24 125 0 123 -7 149 -55 193 l-27 25 -361 3 c-345 2 -363 1 -394
-17z m527 -358 c0 -142 30 -195 130 -228 30 -10 93 -35 139 -56 87 -40 143
-49 184 -28 12 6 50 39 85 72 l62 62 102 -103 103 -102 -62 -62 c-33 -35 -66
-73 -72 -85 -21 -41 -13 -105 22 -178 19 -39 42 -95 52 -125 38 -117 72 -140
210 -140 l95 0 0 -155 0 -155 -304 0 -304 0 9 38 c12 52 11 191 -2 254 -42
207 -227 399 -435 453 -75 19 -233 19 -309 0 -109 -28 -184 -72 -271 -159
-145 -145 -200 -313 -171 -528 l7 -58 -305 0 -305 0 0 155 0 155 103 0 c141 0
167 18 212 148 12 37 37 96 54 132 51 107 42 153 -52 248 l-62 62 103 102 102
103 62 -62 c35 -33 73 -66 85 -72 38 -19 100 -13 161 18 31 16 90 40 131 55
135 49 151 71 151 214 l0 102 145 0 145 0 0 -77z m-13 -859 c48 -23 106 -82
135 -136 30 -57 32 -183 4 -246 l-19 -42 -249 0 -249 0 -21 48 c-57 126 -3
288 120 364 76 47 194 52 279 12z m1441 -819 c12 -49 28 -146 34 -213 14 -147
-4 -112 281 -536 108 -162 197 -297 197 -300 0 -3 -83 -6 -184 -6 -174 0 -185
-1 -217 -23 -68 -45 -69 -53 -69 -429 l0 -338 -244 0 c-236 0 -244 -1 -277
-23 -69 -46 -69 -46 -69 -494 l0 -403 -700 0 -700 0 0 429 c0 279 -4 440 -11
458 -20 54 -58 81 -158 114 -611 201 -1032 784 -1031 1429 0 110 11 196 41
333 l22 97 1531 -2 1531 -3 23 -90z"/>
</g>
</svg>
