<svg width="217" height="244" xmlns="http://www.w3.org/2000/svg" xmlns:xlink="http://www.w3.org/1999/xlink" overflow="hidden"><defs><clipPath id="clip0"><rect x="136" y="238" width="217" height="244"/></clipPath></defs><g clip-path="url(#clip0)" transform="translate(-136 -238)"><path d="M249 246 249 266 264 255.128Z" fill="#E87E20" fill-rule="evenodd"/><path d="M182 446 203.008 432.836 203.008 406.109 221 395.538 182 373Z" fill="#E87E20" fill-rule="evenodd"/><path d="M308 446 308 373 270 394.79 274.787 424.913Z" fill="#0055B8" fill-rule="evenodd"/><path d="M290 446.16 260.547 432 213 450.547 244.363 467Z" fill="#39ADA9" fill-rule="evenodd"/><path d="M213 428 213 450 260 431.4Z" fill="#E87E20" fill-rule="evenodd"/><path d="M200 404.834 245 430 290 406.32 264.042 387 226.86 388.882Z" fill="#32A09A" fill-rule="evenodd"/><path d="M200 256 200 279.807 245 307 290 281.5 290 256.797 245 283.193Z" fill="#0055B8" fill-rule="evenodd"/><path d="M260.134 239 249.41 246.251 261.637 253.501 243.998 264.923 213.73 247.641 200 255.885 245 283 290 256.679Z" fill="#39ADA9" fill-rule="evenodd"/><path d="M136 294 136 419.548 181.693 446 181.693 372.655 245 409.328 245 357.024Z" fill="#0055B8" fill-rule="evenodd"/><path d="M244.651 357 353 294.24 309.259 267 244.651 302.521 180.544 267 136 294.24Z" fill="#39ADA9" fill-rule="evenodd"/><path d="M245 409.328 308.4 373.156 308.4 446 353 419.548 353 294 245 357.024Z" fill="#FFD331" fill-rule="evenodd"/><path d="M245 430.201 200 405 200 455.799 244.499 481 244.499 466.415 213.229 450.044 213.229 428.217 244.499 443Z" fill="#0055B8" fill-rule="evenodd"/><path d="M244 481 290 460.354 290 446 244 466.548Z" fill="#FFD331" fill-rule="evenodd"/><path d="M244 443 290 420.177 290 406 244 430.03Z" fill="#FFD331" fill-rule="evenodd"/></g></svg>