<svg width="575" height="648" xmlns="http://www.w3.org/2000/svg" xmlns:xlink="http://www.w3.org/1999/xlink" overflow="hidden"><g transform="translate(-426 -15)"><path d="M725 35 725 87 764 58.7335Z" fill="#E87E20" fill-rule="evenodd"/><path d="M547 567 602.482 531.836 602.482 460.443 650 432.205 547 372Z" fill="#E87E20" fill-rule="evenodd"/><path d="M882 567 882 373 781 430.906 793.724 510.961Z" fill="#0055B8" fill-rule="evenodd"/><path d="M833 566.624 755.351 529 630 578.282 712.684 622Z" fill="#39ADA9" fill-rule="evenodd"/><path d="M630 520 630 578 755 528.964Z" fill="#E87E20" fill-rule="evenodd"/><path d="M595 457.111 714 525 833 461.12 764.356 409 666.029 414.078Z" fill="#32A09A" fill-rule="evenodd"/><path d="M595 61 595 124.485 714 197 833 129 833 63.125 714 133.516Z" fill="#0055B8" fill-rule="evenodd"/><path d="M754.02 15 725.662 34.4449 757.996 53.8894 711.35 84.5214 631.309 38.174 595 60.2822 714 133 833 62.4131Z" fill="#39ADA9" fill-rule="evenodd"/><path d="M426 162 426 496.519 546.731 567 546.731 371.575 714 469.288 714 329.927Z" fill="#0055B8" fill-rule="evenodd"/><path d="M713.398 330 1000 161.941 884.298 89 713.398 184.118 543.825 89 426 161.941Z" fill="#39ADA9" fill-rule="evenodd"/><path d="M714 469.288 881.893 372.91 881.893 567 1000 496.519 1000 162 714 329.927Z" fill="#FFD331" fill-rule="evenodd"/><path d="M714 524.977 595 457 595 594.024 712.675 662 712.675 622.659 629.984 578.501 629.984 519.624 712.675 559.5Z" fill="#0055B8" fill-rule="evenodd"/><path d="M712 662 833 605.961 833 567 712 622.772Z" fill="#FFD331" fill-rule="evenodd"/><path d="M712 559 833 498.549 833 461 712 524.647Z" fill="#FFD331" fill-rule="evenodd"/></g></svg>