<?xml version="1.0" standalone="no"?>
<!DOCTYPE svg PUBLIC "-//W3C//DTD SVG 20010904//EN"
 "http://www.w3.org/TR/2001/REC-SVG-20010904/DTD/svg10.dtd">
<svg version="1.0" xmlns="http://www.w3.org/2000/svg"
 width="512.000000pt" height="512.000000pt" viewBox="0 0 512.000000 512.000000"
 preserveAspectRatio="xMidYMid meet">
<metadata>
Created by potrace 1.16, written by Peter Selinger 2001-2019
</metadata>
<g transform="translate(0.000000,512.000000) scale(0.100000,-0.100000)"
fill="#000000" stroke="none">
<path d="M2507 5063 c-8 -10 -37 -64 -63 -120 -53 -115 -36 -105 -198 -124
-112 -13 -136 -28 -136 -83 0 -29 12 -45 92 -122 l91 -88 -22 -124 c-23 -124
-23 -125 -4 -151 34 -44 70 -40 184 23 54 31 104 56 109 56 5 0 55 -25 109
-56 114 -63 150 -67 184 -23 19 26 19 27 -4 151 l-22 124 91 88 c80 77 92 93
92 122 0 31 -28 74 -47 74 -23 0 -235 29 -238 32 -3 2 -25 49 -50 103 -57 123
-68 135 -115 135 -22 0 -43 -7 -53 -17z m83 -284 c30 -64 49 -77 122 -85 32
-4 58 -10 58 -15 0 -4 -17 -22 -39 -41 -56 -49 -64 -70 -52 -129 18 -82 17
-83 -42 -49 -30 16 -64 30 -77 30 -13 0 -47 -14 -77 -30 -60 -34 -61 -32 -42
49 13 57 0 89 -52 130 -21 18 -39 36 -39 40 0 5 26 11 58 15 73 8 92 21 122
85 13 28 26 51 30 51 4 0 17 -23 30 -51z"/>
<path d="M1523 4520 c-43 -34 -87 -67 -98 -75 -18 -13 -32 -10 -128 25 -124
46 -145 48 -175 20 -31 -29 -28 -68 13 -180 19 -52 35 -100 35 -106 0 -6 -32
-53 -72 -105 -82 -105 -92 -145 -47 -181 22 -18 36 -20 149 -17 l125 4 67 -99
c37 -55 73 -103 80 -108 7 -4 27 -8 45 -8 45 0 64 29 97 151 16 57 32 107 36
112 3 4 57 22 120 40 129 37 158 60 145 116 -6 26 -25 44 -112 102 l-104 70 3
129 c2 114 1 131 -16 149 -34 38 -75 28 -163 -39z m29 -229 c-4 -73 4 -89 67
-132 28 -19 51 -37 51 -40 0 -3 -24 -11 -52 -19 -77 -19 -87 -28 -110 -104
-17 -56 -23 -66 -32 -54 -6 9 -26 36 -43 62 l-33 46 -75 0 -76 0 40 57 c47 64
49 78 21 151 -11 28 -16 52 -12 52 5 0 35 -9 66 -20 64 -22 80 -19 140 29 21
17 42 31 45 31 3 0 4 -27 3 -59z"/>
<path d="M3434 4559 c-17 -18 -18 -35 -16 -149 l3 -129 -104 -70 c-87 -58
-106 -76 -112 -102 -13 -56 16 -79 145 -116 63 -18 117 -36 120 -40 4 -5 20
-55 36 -112 33 -122 52 -151 97 -151 18 0 38 4 45 8 7 5 43 53 80 108 l67 99
125 -4 c113 -3 127 -1 150 17 44 36 34 76 -48 181 -40 52 -72 99 -72 105 0 6
16 54 35 106 40 109 44 151 15 180 -28 28 -54 25 -177 -20 -96 -35 -110 -38
-128 -25 -11 8 -55 41 -98 75 -88 67 -129 77 -163 39z m187 -242 c63 -48 72
-49 145 -23 l65 24 -7 -22 c-3 -11 -13 -36 -20 -55 -22 -52 -17 -73 27 -134
l40 -57 -76 0 -75 0 -33 -46 c-17 -26 -37 -53 -43 -62 -9 -12 -15 -2 -32 54
-23 76 -33 85 -109 104 -29 8 -53 16 -53 19 0 3 23 21 51 40 63 43 71 59 67
132 -1 32 0 59 3 59 3 0 26 -15 50 -33z"/>
<path d="M2480 4139 c-68 -9 -165 -51 -212 -93 -50 -45 -96 -115 -120 -183
-19 -57 -23 -87 -22 -188 0 -102 5 -132 27 -201 48 -145 149 -268 265 -322 48
-23 71 -27 142 -27 71 0 94 4 142 27 116 54 217 177 265 322 22 69 27 99 27
201 1 101 -3 131 -22 188 -70 202 -255 306 -492 276z m179 -155 c67 -20 131
-78 162 -147 21 -45 24 -67 24 -167 -1 -103 -4 -122 -30 -185 -39 -95 -128
-186 -203 -209 -45 -13 -58 -13 -98 -1 -144 43 -244 208 -244 401 0 163 60
263 184 306 64 22 137 23 205 2z"/>
<path d="M833 3488 c-29 -14 -33 -24 -52 -161 l-16 -117 -105 -50 c-107 -51
-140 -77 -140 -112 0 -41 24 -62 136 -115 79 -37 114 -59 114 -71 0 -9 7 -64
15 -121 15 -117 31 -144 86 -144 27 0 45 13 121 92 l89 91 105 -20 c140 -27
158 -26 184 7 29 37 23 60 -44 180 l-55 97 38 71 c94 170 93 167 60 209 -25
32 -49 33 -184 6 l-100 -19 -85 85 c-112 112 -118 116 -167 92z m249 -324 c29
4 63 10 75 12 20 6 19 2 -14 -61 l-35 -67 34 -70 c33 -64 34 -69 14 -64 -12 4
-47 9 -78 12 l-56 7 -49 -53 c-46 -50 -48 -51 -54 -28 -4 12 -7 39 -8 59 -1
48 -29 82 -91 108 -27 12 -50 24 -50 27 0 3 24 16 54 29 60 26 86 56 86 96 0
15 3 41 6 59 l7 32 53 -53 52 -52 54 7z"/>
<path d="M4220 3490 c-8 -5 -53 -47 -100 -94 l-85 -85 -95 19 c-135 27 -164
26 -190 -7 -28 -36 -23 -56 44 -178 l55 -99 -33 -61 c-94 -168 -98 -184 -59
-227 21 -23 49 -23 177 2 l106 21 88 -92 c76 -79 93 -92 121 -92 55 0 71 26
86 144 8 57 15 112 15 121 0 12 35 34 114 71 112 53 136 74 136 115 0 35 -33
61 -140 112 l-105 50 -16 117 c-20 139 -22 147 -55 162 -30 13 -44 14 -64 1z
m-11 -299 c6 -35 15 -69 22 -77 6 -7 35 -25 65 -38 30 -14 54 -27 54 -30 0 -3
-23 -15 -50 -27 -62 -26 -90 -60 -91 -108 -1 -20 -4 -47 -8 -59 -6 -23 -8 -22
-52 27 -50 55 -70 61 -154 41 -22 -5 -41 -8 -42 -6 -2 2 10 33 27 69 l31 65
-31 62 c-17 34 -30 64 -28 65 2 2 34 -1 71 -8 l68 -11 51 52 c29 28 53 50 54
49 2 -1 7 -31 13 -66z"/>
<path d="M2120 3124 c-341 -92 -418 -145 -461 -314 -11 -42 -14 -146 -14 -450
0 -353 2 -400 18 -446 23 -67 77 -128 141 -162 l51 -27 705 0 705 0 51 27 c29
15 68 46 87 69 65 76 69 97 74 459 5 317 -3 487 -27 572 -14 49 -65 115 -115
150 -52 35 -166 77 -336 122 -189 50 -235 47 -328 -18 -38 -27 -51 -31 -111
-31 -60 0 -73 4 -111 31 -92 65 -147 68 -329 18z m251 -142 c39 -26 41 -29 36
-67 -3 -22 -18 -167 -33 -321 l-27 -281 80 -114 c91 -130 119 -152 160 -129
14 8 62 66 107 129 l80 115 -28 285 c-15 157 -30 302 -32 321 -5 32 -2 37 33
60 21 14 47 28 58 31 22 6 286 -60 368 -92 70 -28 116 -64 136 -108 14 -31 16
-86 16 -436 0 -366 -2 -403 -18 -433 -24 -44 -72 -72 -124 -72 l-43 0 0 260
c0 247 -1 261 -20 280 -11 11 -33 20 -50 20 -17 0 -39 -9 -50 -20 -19 -19 -20
-33 -20 -280 l0 -260 -108 0 c-60 0 -258 -3 -440 -7 l-332 -6 0 266 c0 254 -1
268 -20 287 -11 11 -33 20 -50 20 -17 0 -39 -9 -50 -20 -19 -19 -20 -33 -20
-286 l0 -266 -42 7 c-59 10 -92 29 -120 67 -22 31 -23 45 -29 233 -8 275 4
599 23 645 20 47 65 84 135 110 90 33 346 99 366 93 10 -2 36 -17 58 -31z"/>
<path d="M857 1812 c-14 -16 -17 -45 -17 -190 0 -153 2 -174 18 -190 13 -13
65 -27 168 -47 82 -15 154 -33 160 -39 6 -6 35 -69 63 -140 l53 -128 -86 -129
c-124 -185 -131 -157 112 -402 108 -109 210 -205 225 -213 16 -9 37 -12 50 -8
12 3 79 44 148 91 l126 85 114 -47 c181 -75 160 -51 194 -227 20 -102 36 -159
47 -170 16 -16 45 -18 328 -18 283 0 312 2 328 18 11 11 27 68 47 170 34 177
13 152 194 226 l115 47 125 -84 c69 -47 136 -88 148 -91 13 -4 34 -1 50 8 15
8 117 104 226 213 242 245 235 217 111 402 l-85 128 52 127 c28 69 57 132 63
139 6 8 77 26 160 42 105 19 154 33 167 46 17 17 19 36 19 192 0 156 -2 176
-18 190 -17 15 -60 17 -410 17 -462 0 -425 10 -436 -121 -23 -279 -162 -517
-391 -667 -310 -204 -704 -183 -1001 51 -184 146 -299 368 -320 616 -11 131
26 121 -437 121 -369 0 -395 -1 -410 -18z m666 -128 c34 -6 37 -9 37 -39 0
-18 11 -77 25 -131 91 -359 367 -635 731 -730 85 -23 120 -26 244 -26 178 0
292 26 445 102 298 147 519 456 551 767 l7 63 222 0 c122 0 250 -3 284 -6 l61
-7 0 -67 0 -66 -141 -29 c-78 -16 -149 -36 -159 -44 -23 -19 -170 -371 -170
-405 0 -14 36 -78 81 -147 l81 -122 -149 -149 c-81 -81 -150 -148 -154 -148
-3 0 -59 36 -125 80 -65 44 -128 80 -139 80 -26 0 -393 -154 -412 -172 -7 -8
-26 -79 -41 -158 l-27 -145 -215 -3 -215 -2 -24 127 c-31 168 -36 180 -80 202
-70 36 -358 151 -376 151 -10 0 -70 -34 -134 -77 -64 -42 -121 -76 -127 -77
-13 -1 -304 277 -304 290 0 5 36 63 80 129 44 66 80 129 80 140 0 36 -154 397
-175 411 -11 7 -83 26 -160 41 l-140 28 -3 59 c-2 32 -1 65 2 72 4 11 53 14
253 14 136 0 265 -3 286 -6z"/>
</g>
</svg>
