<?xml version="1.0" standalone="no"?>
<!DOCTYPE svg PUBLIC "-//W3C//DTD SVG 20010904//EN"
 "http://www.w3.org/TR/2001/REC-SVG-20010904/DTD/svg10.dtd">
<svg version="1.0" xmlns="http://www.w3.org/2000/svg"
 width="276.000000pt" height="270.000000pt" viewBox="0 0 276.000000 270.000000"
 preserveAspectRatio="xMidYMid meet">

<g transform="translate(0.000000,270.000000) scale(0.100000,-0.100000)"
fill="#666666" stroke="none">
<path d="M1185 2399 c-63 -33 -131 -106 -162 -173 -24 -52 -28 -74 -28 -146 0
-72 4 -94 28 -145 15 -33 45 -78 66 -100 52 -54 61 -74 61 -139 0 -54 0 -55
-32 -58 -32 -3 -36 -9 -123 -180 -107 -211 -107 -211 4 -216 l71 -3 0 -244 c0
-235 -1 -244 -20 -249 -65 -19 -60 -21 -60 26 0 24 -5 49 -12 56 -17 17 -359
17 -376 0 -7 -7 -12 -25 -12 -40 l0 -28 -148 0 c-102 0 -152 -4 -160 -12 -17
-17 -17 -599 0 -616 8 -8 58 -12 160 -12 l148 0 0 -28 c0 -15 5 -33 12 -40 17
-17 359 -17 376 0 7 7 12 27 12 46 0 29 3 33 18 27 100 -44 104 -44 462 -44
252 0 355 3 380 12 57 21 722 407 758 441 38 35 56 91 46 144 -9 46 -69 110
-113 118 l-31 6 0 219 0 218 71 3 c111 5 111 5 4 216 -86 169 -91 177 -121
180 -18 2 -40 12 -50 23 -17 19 -16 19 27 19 25 0 50 5 57 12 16 16 16 200 0
216 -7 7 -32 12 -57 12 l-45 0 32 33 c18 18 32 40 32 48 0 19 -131 149 -150
149 -8 0 -29 -14 -47 -32 l-33 -32 0 45 c0 25 -5 50 -12 57 -16 16 -200 16
-216 0 -7 -7 -12 -32 -12 -57 l0 -45 -33 32 c-18 18 -40 32 -48 32 -19 0 -149
-131 -149 -150 0 -8 14 -29 32 -47 l32 -33 -45 0 c-25 0 -50 -5 -57 -12 -8 -8
-12 -47 -12 -108 0 -61 4 -100 12 -108 7 -7 32 -12 57 -12 43 0 44 0 26 -20
-16 -18 -31 -20 -137 -20 l-118 0 0 56 c0 65 9 85 61 139 21 22 51 67 66 100
24 51 28 73 28 145 0 72 -4 94 -28 146 -48 104 -178 210 -226 184 -20 -10 -21
-19 -21 -160 l0 -150 -40 -26 -40 -27 -40 27 -40 26 0 150 c0 137 -2 150 -19
160 -25 13 -20 14 -66 -11z m80 -389 c41 -27 79 -50 85 -50 6 0 44 23 85 50
l75 51 0 127 1 127 44 -48 c102 -110 99 -266 -5 -380 -62 -68 -80 -110 -80
-187 l0 -60 -40 0 -39 0 -3 71 c-2 55 -7 74 -20 83 -13 8 -23 8 -35 0 -14 -9
-19 -28 -21 -83 l-3 -71 -39 0 -40 0 0 60 c0 77 -18 119 -80 187 -103 113
-106 266 -8 378 l43 49 3 -127 3 -127 74 -50z m885 56 c0 -45 4 -58 22 -70 35
-24 59 -19 100 21 l38 37 27 -27 27 -27 -37 -38 c-40 -41 -45 -65 -21 -100 12
-18 25 -22 70 -22 l54 0 0 -40 0 -40 -54 0 c-45 0 -58 -4 -70 -22 -21 -29 -20
-57 1 -80 15 -17 13 -18 -73 -18 -83 1 -87 2 -59 14 101 44 125 178 46 257
-112 113 -296 12 -267 -146 8 -42 50 -93 91 -111 28 -12 24 -13 -59 -14 -86 0
-88 1 -73 18 21 23 22 51 1 80 -12 18 -25 22 -70 22 l-54 0 0 40 0 40 54 0
c45 0 58 4 70 22 24 35 19 59 -21 100 l-37 38 27 27 27 27 38 -37 c41 -40 65
-45 100 -21 18 12 22 25 22 70 l0 54 40 0 40 0 0 -54z m15 -211 c50 -49 15
-135 -55 -135 -19 0 -40 9 -55 25 -16 15 -25 36 -25 55 0 19 9 40 25 55 15 16
36 25 55 25 19 0 40 -9 55 -25z m-445 -300 c0 -3 -26 -57 -57 -120 l-58 -115
-292 0 c-161 0 -293 2 -293 5 0 3 26 57 57 120 l58 115 292 0 c161 0 293 -2
293 -5z m783 -110 c31 -63 57 -117 57 -120 0 -3 -132 -5 -293 -5 l-292 0 -58
115 c-31 63 -57 117 -57 120 0 3 132 5 293 5 l292 0 58 -115z m-755 -583 l-3
-188 -215 58 c-186 51 -224 58 -280 55 -36 -3 -73 -8 -82 -12 -17 -7 -18 8
-18 229 l0 236 253 2 252 3 45 87 45 88 3 -184 c1 -102 1 -270 0 -374z m430
380 l252 -2 -2 -226 -3 -226 -198 -115 -198 -115 -27 26 c-28 26 -51 36 -129
56 l-43 11 0 387 1 387 47 -90 47 -90 253 -3z m-1268 -802 l0 -320 -120 0
-120 0 0 320 0 320 120 0 120 0 0 -320z m1641 261 c30 -24 32 -83 4 -110 -23
-21 -668 -395 -720 -417 -28 -11 -102 -14 -371 -14 l-337 0 -69 31 -68 32 0
213 0 213 38 10 c168 43 206 51 239 51 46 0 658 -164 680 -181 53 -44 22 -138
-46 -139 -13 0 -135 30 -272 67 -206 55 -251 64 -264 53 -18 -15 -20 -44 -2
-58 6 -5 125 -40 262 -77 271 -72 307 -76 364 -36 36 26 58 64 63 110 4 31 14
38 208 151 216 126 247 136 291 101z m-1961 -261 l0 -240 -120 0 -120 0 0 240
0 240 120 0 120 0 0 -240z"/>
</g>
</svg>
