<?xml version="1.0" standalone="no"?>
<!DOCTYPE svg PUBLIC "-//W3C//DTD SVG 20010904//EN"
 "http://www.w3.org/TR/2001/REC-SVG-20010904/DTD/svg10.dtd">
<svg version="1.0" xmlns="http://www.w3.org/2000/svg"
 width="512.000000pt" height="512.000000pt" viewBox="0 0 512.000000 512.000000"
 preserveAspectRatio="xMidYMid meet">
<metadata>
Created by potrace 1.16, written by Peter Selinger 2001-2019
</metadata>
<g transform="translate(0.000000,512.000000) scale(0.100000,-0.100000)"
fill="#000000" stroke="none">
<path d="M1223 5021 c-105 -39 -181 -108 -230 -211 -22 -45 -28 -73 -31 -152
l-4 -98 -352 0 c-391 0 -397 -1 -463 -71 -63 -66 -63 -69 -63 -497 l0 -389
138 -5 c150 -5 207 -21 266 -76 90 -85 88 -241 -5 -329 -58 -54 -98 -66 -256
-71 l-143 -5 0 -389 c0 -428 0 -431 63 -497 68 -71 62 -71 543 -71 l431 0 5
138 c6 150 22 208 76 266 85 90 241 88 329 -5 54 -58 66 -98 71 -256 l5 -143
378 0 c209 0 379 -1 379 -2 0 -2 -16 -41 -34 -88 l-34 -85 -146 -39 -146 -39
0 -307 0 -307 147 -39 146 -39 14 -40 c7 -22 27 -69 44 -105 l30 -66 -75 -128
c-42 -70 -76 -130 -76 -134 0 -10 423 -432 433 -432 4 0 64 34 134 76 l127 75
66 -30 c36 -17 83 -37 105 -44 l40 -14 39 -146 39 -147 307 0 307 0 32 123
c47 178 42 169 86 184 22 7 69 27 105 44 l66 30 128 -75 c70 -42 130 -76 134
-76 9 0 432 423 432 432 0 4 -34 64 -76 134 l-75 128 30 66 c17 36 37 83 44
105 15 44 6 39 185 86 l122 32 0 307 0 307 -122 32 c-179 47 -170 42 -185 86
-7 22 -27 69 -44 105 l-30 66 75 128 c42 70 76 130 76 134 0 9 -423 432 -432
432 -4 0 -64 -34 -134 -76 l-128 -75 -66 30 c-36 17 -83 37 -105 44 l-40 14
-39 146 -39 147 -307 0 -307 0 -32 -122 c-47 -179 -42 -170 -86 -185 -22 -7
-69 -27 -105 -44 l-66 -30 -129 76 c-70 42 -134 74 -142 71 -10 -4 -13 18 -13
113 l0 118 -142 5 c-159 5 -199 17 -257 71 -93 88 -95 244 -5 329 59 55 116
71 267 76 l137 5 0 389 c0 428 0 431 -63 497 -66 70 -72 71 -463 71 l-352 0
-4 94 c-3 79 -8 102 -35 157 -39 79 -116 157 -191 195 -49 24 -71 28 -157 31
-80 3 -111 -1 -152 -16z m232 -170 c52 -24 89 -64 116 -126 18 -40 23 -74 27
-187 l5 -138 394 0 c438 0 451 -2 472 -60 7 -22 11 -128 11 -305 l0 -273 -94
-4 c-79 -3 -102 -8 -157 -35 -79 -39 -157 -115 -195 -191 -27 -53 -29 -65 -29
-172 0 -107 2 -119 29 -175 38 -77 115 -153 191 -190 50 -24 76 -30 158 -33
l97 -4 0 -122 0 -121 -125 -125 c-69 -69 -125 -128 -125 -132 0 -4 16 -33 35
-65 19 -32 35 -61 35 -65 0 -5 -121 -8 -269 -8 l-269 0 -4 98 c-3 81 -9 107
-33 157 -37 76 -113 153 -190 191 -56 27 -68 29 -175 29 -107 0 -119 -2 -172
-29 -76 -38 -152 -116 -191 -195 -27 -55 -32 -78 -35 -157 l-4 -94 -315 0
c-351 0 -372 3 -392 60 -7 22 -11 128 -11 305 l0 273 97 4 c82 3 108 9 158 33
76 37 153 113 191 190 27 56 29 68 29 175 0 107 -2 119 -29 172 -38 76 -116
152 -195 191 -55 27 -78 32 -157 35 l-94 4 0 273 c0 177 4 283 11 305 21 58
34 60 472 60 l394 0 5 143 c5 158 17 198 71 256 66 69 177 91 262 52z m2271
-2024 c18 -71 34 -131 37 -134 3 -3 52 -20 109 -40 57 -19 135 -52 175 -74
l72 -39 113 66 c62 37 116 68 119 70 3 2 60 -52 127 -119 l121 -122 -69 -118
-70 -118 39 -72 c22 -40 55 -118 74 -175 20 -57 37 -105 39 -108 3 -2 63 -19
134 -38 l129 -33 0 -173 0 -174 -128 -32 c-71 -18 -131 -34 -134 -37 -3 -3
-20 -52 -40 -109 -19 -57 -52 -135 -74 -175 l-39 -72 70 -118 69 -118 -121
-122 c-67 -67 -124 -121 -127 -119 -3 2 -56 33 -118 70 l-112 67 -73 -40 c-40
-22 -119 -55 -176 -74 -57 -20 -106 -37 -109 -40 -3 -3 -19 -63 -37 -134 l-32
-128 -174 0 -174 0 -32 129 c-18 70 -36 131 -41 135 -4 4 -47 19 -94 34 -47
15 -125 47 -173 72 l-87 44 -117 -69 -117 -69 -122 121 c-67 67 -121 124 -119
127 2 3 33 56 69 117 l67 112 -45 88 c-25 48 -57 126 -72 173 -15 47 -30 90
-34 94 -4 5 -65 23 -135 41 l-129 32 0 174 0 174 129 32 c70 18 131 36 135 41
4 4 19 47 34 94 15 47 47 125 72 173 l44 87 -66 112 c-36 62 -67 115 -69 118
-2 3 52 60 119 127 l122 121 118 -69 118 -70 72 39 c40 22 119 56 176 75 58
19 108 41 111 48 4 7 20 65 35 128 15 63 30 118 32 123 3 4 81 6 176 5 l171
-3 32 -128z"/>
<path d="M3320 2545 c-357 -80 -630 -337 -732 -691 -20 -69 -23 -101 -23 -254
0 -153 3 -185 23 -254 97 -334 344 -581 678 -678 69 -20 101 -23 254 -23 153
0 185 3 254 23 334 97 581 344 678 678 20 69 23 101 23 254 0 153 -3 185 -23
254 -96 332 -343 580 -673 677 -97 28 -359 36 -459 14z m370 -171 c44 -9 116
-36 175 -64 172 -84 281 -193 365 -365 59 -122 80 -212 80 -345 0 -126 -20
-220 -72 -330 -80 -174 -201 -296 -373 -380 -120 -58 -218 -81 -345 -81 -127
0 -224 23 -345 81 -172 84 -281 193 -365 365 -59 122 -80 212 -80 345 0 133
21 223 80 345 84 172 193 281 365 365 172 84 323 102 515 64z"/>
<path d="M3345 2221 c-166 -48 -315 -168 -392 -316 -55 -107 -73 -181 -73
-305 0 -124 18 -198 73 -305 79 -153 242 -281 408 -320 75 -17 226 -20 301 -4
53 11 196 74 232 101 18 14 17 18 -30 81 -27 36 -53 66 -57 67 -4 0 -25 -11
-45 -25 -128 -88 -350 -86 -491 4 -263 169 -299 532 -73 743 96 90 194 128
327 128 168 0 321 -90 407 -240 79 -137 76 -351 -7 -472 -14 -20 -25 -41 -25
-45 1 -4 31 -30 67 -57 78 -57 72 -60 133 69 47 100 60 160 60 282 0 117 -19
193 -73 298 -78 151 -236 276 -403 319 -84 22 -259 20 -339 -3z"/>
<path d="M2960 4800 l0 -80 -80 0 -80 0 0 -80 0 -80 80 0 80 0 0 -80 0 -80 80
0 80 0 0 80 0 80 80 0 80 0 0 80 0 80 -80 0 -80 0 0 80 0 80 -80 0 -80 0 0
-80z m160 -160 l0 -80 -80 0 -80 0 0 80 0 80 80 0 80 0 0 -80z"/>
<path d="M4160 4480 l0 -80 -80 0 -80 0 0 -80 0 -80 80 0 80 0 0 -80 0 -80 80
0 80 0 0 80 0 80 80 0 80 0 0 80 0 80 -80 0 -80 0 0 80 0 80 -80 0 -80 0 0
-80z m160 -160 l0 -80 -80 0 -80 0 0 80 0 80 80 0 80 0 0 -80z"/>
<path d="M3360 3840 l0 -80 -80 0 -80 0 0 -80 0 -80 80 0 80 0 0 -80 0 -80 80
0 80 0 0 80 0 80 80 0 80 0 0 80 0 80 -80 0 -80 0 0 80 0 80 -80 0 -80 0 0
-80z m160 -160 l0 -80 -80 0 -80 0 0 80 0 80 80 0 80 0 0 -80z"/>
<path d="M4480 3520 l0 -80 -80 0 -80 0 0 -80 0 -80 80 0 80 0 0 -80 0 -80 80
0 80 0 0 80 0 80 80 0 80 0 0 80 0 80 -80 0 -80 0 0 80 0 80 -80 0 -80 0 0
-80z m160 -160 l0 -80 -80 0 -80 0 0 80 0 80 80 0 80 0 0 -80z"/>
<path d="M640 1760 l0 -80 -80 0 -80 0 0 -80 0 -80 80 0 80 0 0 -80 0 -80 80
0 80 0 0 80 0 80 80 0 80 0 0 80 0 80 -80 0 -80 0 0 80 0 80 -80 0 -80 0 0
-80z m160 -160 l0 -80 -80 0 -80 0 0 80 0 80 80 0 80 0 0 -80z"/>
<path d="M1440 1280 l0 -80 -80 0 -80 0 0 -80 0 -80 80 0 80 0 0 -80 0 -80 80
0 80 0 0 80 0 80 80 0 80 0 0 80 0 80 -80 0 -80 0 0 80 0 80 -80 0 -80 0 0
-80z m160 -160 l0 -80 -80 0 -80 0 0 80 0 80 80 0 80 0 0 -80z"/>
</g>
</svg>
