<?xml version="1.0" standalone="no"?>
<!DOCTYPE svg PUBLIC "-//W3C//DTD SVG 20010904//EN"
 "http://www.w3.org/TR/2001/REC-SVG-20010904/DTD/svg10.dtd">
<svg version="1.0" xmlns="http://www.w3.org/2000/svg"
 width="265.000000pt" height="279.000000pt" viewBox="0 0 265.000000 279.000000"
 preserveAspectRatio="xMidYMid meet">

<g transform="translate(0.000000,279.000000) scale(0.100000,-0.100000)"
fill="#666666" stroke="none">
<path d="M1180 2665 c-6 -15 -10 -29 -10 -33 0 -40 -24 -80 -56 -95 l-36 -17
-58 35 c-32 19 -61 35 -65 35 -14 0 -155 -144 -155 -158 0 -8 14 -37 31 -65
29 -48 30 -53 18 -89 -13 -39 -14 -40 -112 -64 -17 -4 -32 -16 -38 -31 -11
-29 -12 -183 -1 -200 4 -6 37 -19 73 -28 63 -16 67 -19 79 -55 12 -37 11 -41
-19 -88 -17 -27 -31 -55 -31 -63 0 -24 76 -93 94 -86 23 9 20 37 -9 66 l-24
26 29 48 c17 26 30 53 30 61 0 7 -11 38 -24 69 -24 53 -26 55 -83 69 l-58 14
-3 71 -3 72 38 10 c21 5 49 13 63 16 20 5 31 20 49 68 l24 61 -31 57 -31 56
50 49 49 48 59 -32 59 -32 44 19 c24 11 50 22 59 25 10 3 21 25 29 58 7 29 17
58 22 64 5 7 36 11 76 10 l67 -1 13 -61 13 -62 63 -26 63 -27 52 30 c29 17 55
31 59 31 4 0 29 -22 56 -49 l48 -48 -31 -50 c-17 -28 -31 -54 -31 -59 0 -4 10
-34 22 -66 17 -44 28 -58 48 -63 14 -3 42 -11 63 -16 l37 -10 0 -73 0 -73 -61
-13 c-60 -13 -61 -13 -85 -68 -30 -69 -30 -78 5 -131 l30 -45 -30 -34 c-32
-36 -33 -55 -5 -60 20 -4 96 64 96 85 0 7 -14 36 -31 64 -30 48 -31 53 -19 90
12 37 16 39 70 50 31 6 63 15 71 20 17 10 26 188 11 216 -7 11 -35 24 -73 33
-59 15 -63 18 -77 56 -14 38 -14 41 17 89 17 27 31 56 31 65 0 17 -141 160
-156 160 -5 0 -33 -16 -63 -35 -52 -33 -55 -34 -89 -19 -45 19 -40 11 -60 85
l-17 64 -113 3 -112 3 -10 -26z"/>
<path d="M1229 2307 c-86 -32 -143 -103 -155 -190 -30 -214 236 -343 387 -188
77 80 89 186 31 281 -53 86 -174 130 -263 97z m138 -58 c64 -24 105 -87 105
-159 0 -113 -110 -202 -212 -171 -81 24 -132 91 -132 171 0 71 41 134 102 159
34 13 102 13 137 0z"/>
<path d="M1183 1825 c-100 -28 -180 -95 -222 -185 -20 -45 -26 -75 -29 -161
-8 -187 25 -300 113 -395 44 -47 45 -50 45 -114 l0 -66 -91 -33 c-49 -19 -105
-44 -124 -56 -29 -20 -36 -21 -53 -9 -11 7 -55 26 -98 42 -63 22 -80 33 -82
50 -3 18 2 22 25 22 44 1 104 33 145 77 51 58 61 112 56 313 -3 142 -7 172
-25 212 -44 96 -111 159 -203 191 -25 9 -59 23 -76 31 -52 27 -134 37 -194 26
-121 -23 -215 -90 -271 -192 l-34 -63 -3 -208 -3 -209 26 -55 c30 -60 90 -107
152 -119 26 -5 33 -11 33 -29 0 -20 -11 -27 -67 -47 -82 -28 -155 -94 -172
-154 -14 -49 -15 -431 -1 -439 5 -3 174 -6 375 -5 l365 0 5 -22 c2 -13 6 -39
7 -58 l3 -35 513 -3 512 -2 10 26 c6 14 8 30 5 34 -3 5 -3 21 1 35 l6 25 364
0 c201 -1 369 2 374 5 6 4 10 88 10 209 0 198 -1 203 -26 254 -33 66 -70 94
-170 129 -64 23 -80 32 -82 51 -3 18 1 22 25 22 80 1 174 85 194 174 7 32 10
114 7 216 -4 181 -14 219 -78 300 -34 43 -110 95 -155 106 -16 4 -46 16 -66
26 -161 83 -393 -3 -479 -177 -24 -47 -25 -61 -28 -258 l-3 -209 26 -55 c30
-60 90 -107 152 -119 26 -5 33 -11 33 -29 0 -18 -11 -26 -62 -45 -35 -12 -75
-31 -90 -42 -28 -19 -28 -19 -60 5 -18 14 -79 40 -135 58 l-103 33 0 61 c1 59
2 61 41 88 93 64 149 205 149 374 0 202 -61 295 -241 367 -108 43 -174 51
-246 31z m172 -61 c22 -9 59 -23 82 -31 107 -38 173 -138 173 -260 0 -40 -3
-73 -6 -73 -13 0 -94 62 -119 92 -15 17 -41 56 -57 85 -17 31 -37 53 -46 53
-10 0 -30 -16 -45 -35 -40 -51 -81 -69 -152 -67 -70 2 -117 -11 -162 -45 l-33
-24 0 59 c0 179 196 311 365 246z m-804 -71 c24 -11 68 -31 98 -44 64 -28 123
-92 145 -156 17 -49 23 -233 8 -233 -9 0 -157 150 -243 248 -31 34 -60 62 -64
62 -5 0 -39 -29 -76 -65 -75 -73 -182 -130 -263 -141 l-49 -7 6 55 c18 149 88
246 210 290 66 23 166 19 228 -9z m1664 -3 c124 -55 158 -76 190 -113 49 -57
65 -113 65 -231 l0 -100 -51 49 c-28 28 -97 100 -152 160 -56 61 -105 112
-110 114 -4 1 -39 -27 -77 -63 -76 -74 -183 -131 -264 -142 l-49 -7 7 56 c16
140 92 251 196 288 72 25 174 21 245 -11z m-776 -224 c37 -46 120 -111 152
-121 18 -6 20 -13 16 -41 -8 -50 -49 -134 -85 -175 -17 -19 -55 -48 -84 -65
-47 -26 -63 -29 -138 -29 -76 0 -91 3 -139 30 -84 46 -135 115 -163 219 -12
44 -11 50 12 94 36 68 78 92 159 92 85 0 128 13 171 49 l35 30 15 -21 c8 -12
30 -40 49 -62z m-759 -225 c0 -128 -100 -241 -214 -241 -47 0 -77 13 -121 52
-52 45 -85 119 -85 188 0 84 6 96 64 124 29 14 79 50 111 79 l58 53 94 -99 93
-100 0 -56z m1570 152 l92 -98 -4 -65 c-7 -98 -52 -171 -130 -211 -129 -66
-287 55 -288 221 0 84 6 96 66 126 29 15 77 49 106 75 29 26 56 48 59 49 4 0
48 -44 99 -97z m-2044 -110 c-9 -51 9 -137 39 -196 14 -27 25 -64 25 -82 0
-33 -1 -33 -30 -25 -44 12 -88 47 -107 83 -12 23 -17 59 -17 132 l-1 100 45
12 c25 6 47 12 48 12 2 1 1 -16 -2 -36z m1659 -7 c-8 -50 15 -153 45 -201 11
-18 20 -48 20 -68 0 -35 0 -36 -32 -26 -89 25 -120 78 -126 214 l-5 102 49 11
c27 5 50 10 52 11 2 0 0 -19 -3 -43z m-1055 -138 c0 -76 -56 -144 -133 -162
-20 -5 -29 -2 -34 10 -3 9 -2 22 3 29 47 63 66 100 80 158 l17 68 34 -33 c26
-25 33 -40 33 -70z m1660 0 c0 -76 -56 -144 -133 -162 -20 -5 -29 -2 -34 10
-3 9 -2 22 3 29 47 63 66 100 80 158 l17 68 34 -33 c26 -25 33 -40 33 -70z
m-1222 -159 c36 -7 70 -7 109 0 31 6 60 11 65 11 4 0 8 -21 8 -46 0 -37 -12
-67 -62 -160 -34 -63 -64 -114 -67 -114 -3 0 -39 50 -78 110 -69 104 -73 113
-73 166 0 54 1 56 23 50 12 -4 46 -11 75 -17z m-825 -28 c44 -8 108 -2 150 14
15 6 17 0 17 -51 0 -54 -4 -64 -57 -146 -32 -48 -61 -87 -65 -85 -4 1 -37 42
-73 92 -64 88 -65 91 -65 153 l0 62 23 -15 c13 -8 44 -19 70 -24z m1660 0 c44
-8 108 -2 150 14 15 6 17 0 17 -51 0 -54 -4 -64 -57 -146 -32 -48 -61 -87 -65
-85 -4 1 -37 42 -73 91 -64 88 -65 91 -65 153 l0 63 23 -15 c13 -8 44 -19 70
-24z m-894 -220 c80 -119 80 -119 83 -192 3 -63 6 -74 22 -77 26 -5 36 15 36
79 0 49 8 70 66 180 37 68 68 126 70 128 7 7 192 -61 226 -84 20 -13 45 -44
57 -68 20 -40 21 -60 21 -281 l0 -237 -97 3 -98 3 -5 140 c-5 132 -6 140 -25
140 -19 0 -20 -8 -25 -140 l-5 -140 -215 0 -215 0 -5 140 c-5 132 -6 140 -25
140 -19 0 -20 -8 -25 -140 l-5 -140 -97 -1 -98 -1 0 236 c1 315 9 333 177 397
48 18 91 33 95 34 4 0 43 -54 87 -119z m-821 -10 l72 -99 0 -80 c0 -83 13
-111 45 -98 12 4 15 24 15 91 l0 85 67 100 c73 111 60 105 159 69 27 -11 58
-25 68 -32 17 -13 17 -15 2 -45 -12 -23 -17 -76 -23 -221 l-6 -191 -350 0
-349 0 4 183 c4 194 9 216 60 264 22 21 130 72 153 73 6 0 43 -45 83 -99z
m1660 -1 l72 -99 0 -78 c0 -86 8 -107 36 -101 17 3 19 14 22 91 l3 88 66 100
c73 110 60 104 160 67 63 -23 98 -50 120 -91 14 -26 18 -66 21 -214 l4 -183
-354 0 -353 0 -1 183 c0 149 -3 189 -17 221 -14 32 -15 42 -5 53 14 13 125 62
143 62 6 0 43 -44 83 -99z"/>
<path d="M1271 392 c-13 -25 8 -56 35 -50 29 5 27 62 -3 66 -13 2 -26 -4 -32
-16z"/>
</g>
</svg>
