<?xml version="1.0" encoding="UTF-8"?>
<svg xmlns="http://www.w3.org/2000/svg" xmlns:xlink="http://www.w3.org/1999/xlink" width="30px" height="30px" viewBox="0 0 30 30" version="1.1">
<g id="surface1">
<path style=" stroke:none;fill-rule:nonzero;fill:rgb(15.686275%,50.588235%,72.941176%);fill-opacity:1;" d="M 9.375 1.125 C 3.75 3.625 0.625 8.625 0.625 15.125 C 0.625 20.375 1.25 21.75 4.75 25.25 C 8.25 28.75 9.625 29.375 15 29.375 C 20.375 29.375 21.75 28.75 25.25 25.25 C 28.75 21.75 29.375 20.375 29.375 15 C 29.375 9.75 28.75 8.25 25.5 4.875 C 21.375 0.75 14 -0.875 9.375 1.125 Z M 23.875 6.125 C 31.875 14.25 26.375 27.5 15 27.5 C 7.75 27.5 2.5 22.25 2.5 15 C 2.5 3.625 15.75 -1.875 23.875 6.125 Z M 23.875 6.125 "/>
<path style=" stroke:none;fill-rule:nonzero;fill:rgb(15.686275%,50.588235%,72.941176%);fill-opacity:1;" d="M 17.75 14 C 13.875 17.875 13.75 17.875 11.25 15.625 C 9.875 14.375 8.75 13.875 8.75 14.625 C 8.75 15.25 9.875 16.875 11.25 18.125 C 13.75 20.375 14 20.375 18.375 15.875 C 21 13.375 22.75 11 22.375 10.75 C 22 10.375 20 11.875 17.75 14 Z M 17.75 14 "/>
</g>
</svg>
